<?xml version="1.0" standalone="no"?>
<svg xmlns:xlink="http://www.w3.org/1999/xlink" id="wave" style="transform:rotate(180deg); transition: 0.3s" viewBox="0 0 1440 130" version="1.1" xmlns="http://www.w3.org/2000/svg"><defs><linearGradient id="sw-gradient-0" x1="0" x2="0" y1="1" y2="0"><stop stop-color="rgba(243, 235, 221, 1)" offset="0%"/><stop stop-color="rgba(243, 235, 221, 1)" offset="100%"/></linearGradient></defs><path style="transform:translate(0, 0px); opacity:1" fill="url(#sw-gradient-0)" d="M0,39L40,32.5C80,26,160,13,240,8.7C320,4,400,9,480,23.8C560,39,640,65,720,62.8C800,61,880,30,960,26C1040,22,1120,43,1200,47.7C1280,52,1360,39,1440,28.2C1520,17,1600,9,1680,15.2C1760,22,1840,43,1920,62.8C2000,82,2080,100,2160,106.2C2240,113,2320,108,2400,95.3C2480,82,2560,61,2640,56.3C2720,52,2800,65,2880,60.7C2960,56,3040,35,3120,26C3200,17,3280,22,3360,28.2C3440,35,3520,43,3600,45.5C3680,48,3760,43,3840,36.8C3920,30,4000,22,4080,15.2C4160,9,4240,4,4320,2.2C4400,0,4480,0,4560,4.3C4640,9,4720,17,4800,26C4880,35,4960,43,5040,45.5C5120,48,5200,43,5280,39C5360,35,5440,30,5520,43.3C5600,56,5680,87,5720,101.8L5760,117L5760,130L5720,130C5680,130,5600,130,5520,130C5440,130,5360,130,5280,130C5200,130,5120,130,5040,130C4960,130,4880,130,4800,130C4720,130,4640,130,4560,130C4480,130,4400,130,4320,130C4240,130,4160,130,4080,130C4000,130,3920,130,3840,130C3760,130,3680,130,3600,130C3520,130,3440,130,3360,130C3280,130,3200,130,3120,130C3040,130,2960,130,2880,130C2800,130,2720,130,2640,130C2560,130,2480,130,2400,130C2320,130,2240,130,2160,130C2080,130,2000,130,1920,130C1840,130,1760,130,1680,130C1600,130,1520,130,1440,130C1360,130,1280,130,1200,130C1120,130,1040,130,960,130C880,130,800,130,720,130C640,130,560,130,480,130C400,130,320,130,240,130C160,130,80,130,40,130L0,130Z"/></svg>